<svg width="225" height="225" viewBox="0 0 225 225" fill="none" xmlns="http://www.w3.org/2000/svg">
<path fill-rule="evenodd" clip-rule="evenodd" d="M112.5 78.2285C93.5724 78.2285 78.2285 93.5724 78.2285 112.5C78.2285 131.428 93.5724 146.772 112.5 146.772C131.428 146.772 146.772 131.428 146.772 112.5C146.772 93.5724 131.428 78.2285 112.5 78.2285ZM79.7185 112.5C79.7185 94.3953 94.3953 79.7185 112.5 79.7185C130.605 79.7185 145.281 94.3953 145.281 112.5C145.281 130.605 130.605 145.281 112.5 145.281C94.3953 145.281 79.7185 130.605 79.7185 112.5Z" fill="#7E87A0"/>
<path fill-rule="evenodd" clip-rule="evenodd" d="M112.5 72.6407C90.4863 72.6407 72.6407 90.4863 72.6407 112.5C72.6407 134.514 90.4863 152.359 112.5 152.359C134.514 152.359 152.359 134.514 152.359 112.5C152.359 90.4863 134.514 72.6407 112.5 72.6407ZM74.1308 112.5C74.1308 91.3093 91.3093 74.1308 112.5 74.1308C133.691 74.1308 150.869 91.3093 150.869 112.5C150.869 133.691 133.691 150.869 112.5 150.869C91.3093 150.869 74.1308 133.691 74.1308 112.5Z" fill="#7E87A0"/>
<path fill-rule="evenodd" clip-rule="evenodd" d="M67.053 112.5C67.053 87.4003 87.4003 67.053 112.5 67.053C137.6 67.053 157.947 87.4003 157.947 112.5C157.947 137.6 137.6 157.947 112.5 157.947C87.4003 157.947 67.053 137.6 67.053 112.5ZM112.5 68.543C88.2232 68.543 68.543 88.2232 68.543 112.5C68.543 136.777 88.2232 156.457 112.5 156.457C136.777 156.457 156.457 136.777 156.457 112.5C156.457 88.2232 136.777 68.543 112.5 68.543Z" fill="#7E87A0"/>
<path fill-rule="evenodd" clip-rule="evenodd" d="M61.4652 112.5C61.4652 84.3143 84.3143 61.4652 112.5 61.4652C140.686 61.4652 163.535 84.3143 163.535 112.5C163.535 140.686 140.686 163.535 112.5 163.535C84.3143 163.535 61.4652 140.686 61.4652 112.5ZM112.5 62.9553C85.1372 62.9553 62.9553 85.1372 62.9553 112.5C62.9553 139.863 85.1372 162.045 112.5 162.045C139.863 162.045 162.045 139.863 162.045 112.5C162.045 85.1372 139.863 62.9553 112.5 62.9553Z" fill="#7E87A0"/>
<path fill-rule="evenodd" clip-rule="evenodd" d="M55.8775 112.5C55.8775 81.2282 81.2282 55.8775 112.5 55.8775C143.772 55.8775 169.123 81.2282 169.123 112.5C169.123 143.772 143.772 169.123 112.5 169.123C81.2282 169.123 55.8775 143.772 55.8775 112.5ZM112.5 57.3675C82.0512 57.3675 57.3675 82.0512 57.3675 112.5C57.3675 142.949 82.0512 167.632 112.5 167.632C142.949 167.632 167.632 142.949 167.632 112.5C167.632 82.0512 142.949 57.3675 112.5 57.3675Z" fill="#7E87A0"/>
<path fill-rule="evenodd" clip-rule="evenodd" d="M112.5 50.2897C78.1422 50.2897 50.2897 78.1422 50.2897 112.5C50.2897 146.858 78.1422 174.71 112.5 174.71C146.858 174.71 174.71 146.858 174.71 112.5C174.71 78.1422 146.858 50.2897 112.5 50.2897ZM51.7798 112.5C51.7798 78.9652 78.9652 51.7798 112.5 51.7798C146.035 51.7798 173.22 78.9652 173.22 112.5C173.22 146.035 146.035 173.22 112.5 173.22C78.9652 173.22 51.7798 146.035 51.7798 112.5Z" fill="#7E87A0"/>
<path fill-rule="evenodd" clip-rule="evenodd" d="M44.702 112.5C44.702 75.0562 75.0562 44.702 112.5 44.702C149.944 44.702 180.298 75.0562 180.298 112.5C180.298 149.944 149.944 180.298 112.5 180.298C75.0562 180.298 44.702 149.944 44.702 112.5ZM112.5 46.1921C75.8791 46.1921 46.1921 75.8791 46.1921 112.5C46.1921 149.121 75.8791 178.808 112.5 178.808C149.121 178.808 178.808 149.121 178.808 112.5C178.808 75.8791 149.121 46.1921 112.5 46.1921Z" fill="#7E87A0"/>
<path fill-rule="evenodd" clip-rule="evenodd" d="M112.5 39.1142C71.9702 39.1142 39.1142 71.9702 39.1142 112.5C39.1142 153.03 71.9702 185.886 112.5 185.886C153.03 185.886 185.886 153.03 185.886 112.5C185.886 71.9702 153.03 39.1142 112.5 39.1142ZM40.6043 112.5C40.6043 72.7931 72.7931 40.6043 112.5 40.6043C152.207 40.6043 184.396 72.7931 184.396 112.5C184.396 152.207 152.207 184.396 112.5 184.396C72.7931 184.396 40.6043 152.207 40.6043 112.5Z" fill="#7E87A0"/>
<path fill-rule="evenodd" clip-rule="evenodd" d="M33.5265 112.5C33.5265 68.8841 68.8841 33.5265 112.5 33.5265C156.116 33.5265 191.474 68.8841 191.474 112.5C191.474 156.116 156.116 191.474 112.5 191.474C68.8841 191.474 33.5265 156.116 33.5265 112.5ZM112.5 35.0166C69.7071 35.0166 35.0166 69.7071 35.0166 112.5C35.0166 155.293 69.7071 189.983 112.5 189.983C155.293 189.983 189.983 155.293 189.983 112.5C189.983 69.7071 155.293 35.0166 112.5 35.0166Z" fill="#7E87A0"/>
<path fill-rule="evenodd" clip-rule="evenodd" d="M112.5 27.9387C65.7981 27.9387 27.9387 65.7981 27.9387 112.5C27.9387 159.202 65.7981 197.061 112.5 197.061C159.202 197.061 197.061 159.202 197.061 112.5C197.061 65.7981 159.202 27.9387 112.5 27.9387ZM29.4288 112.5C29.4288 66.621 66.621 29.4288 112.5 29.4288C158.379 29.4288 195.571 66.621 195.571 112.5C195.571 158.379 158.379 195.571 112.5 195.571C66.621 195.571 29.4288 158.379 29.4288 112.5Z" fill="#7E87A0"/>
<path fill-rule="evenodd" clip-rule="evenodd" d="M22.351 112.5C22.351 62.7121 62.7121 22.351 112.5 22.351C162.288 22.351 202.649 62.7121 202.649 112.5C202.649 162.288 162.288 202.649 112.5 202.649C62.7121 202.649 22.351 162.288 22.351 112.5ZM112.5 23.8411C63.535 23.8411 23.8411 63.535 23.8411 112.5C23.8411 161.465 63.535 201.159 112.5 201.159C161.465 201.159 201.159 161.465 201.159 112.5C201.159 63.535 161.465 23.8411 112.5 23.8411Z" fill="#7E87A0"/>
<path fill-rule="evenodd" clip-rule="evenodd" d="M112.5 16.7632C59.626 16.7632 16.7632 59.626 16.7632 112.5C16.7632 165.374 59.626 208.237 112.5 208.237C165.374 208.237 208.237 165.374 208.237 112.5C208.237 59.626 165.374 16.7632 112.5 16.7632ZM18.2533 112.5C18.2533 60.449 60.449 18.2533 112.5 18.2533C164.551 18.2533 206.747 60.449 206.747 112.5C206.747 164.551 164.551 206.747 112.5 206.747C60.449 206.747 18.2533 164.551 18.2533 112.5Z" fill="#7E87A0"/>
<path fill-rule="evenodd" clip-rule="evenodd" d="M11.1755 112.5C11.1755 56.54 56.54 11.1755 112.5 11.1755C168.46 11.1755 213.824 56.54 213.824 112.5C213.824 168.46 168.46 213.824 112.5 213.824C56.54 213.824 11.1755 168.46 11.1755 112.5ZM112.5 12.6656C57.363 12.6656 12.6656 57.363 12.6656 112.5C12.6656 167.637 57.363 212.334 112.5 212.334C167.637 212.334 212.334 167.637 212.334 112.5C212.334 57.363 167.637 12.6656 112.5 12.6656Z" fill="#7E87A0"/>
<path fill-rule="evenodd" clip-rule="evenodd" d="M112.5 5.58775C53.454 5.58775 5.58775 53.454 5.58775 112.5C5.58775 171.546 53.454 219.412 112.5 219.412C171.546 219.412 219.412 171.546 219.412 112.5C219.412 53.454 171.546 5.58775 112.5 5.58775ZM7.07781 112.5C7.07781 54.2769 54.2769 7.07781 112.5 7.07781C170.723 7.07781 217.922 54.2769 217.922 112.5C217.922 170.723 170.723 217.922 112.5 217.922C54.2769 217.922 7.07781 170.723 7.07781 112.5Z" fill="#7E87A0"/>
<path fill-rule="evenodd" clip-rule="evenodd" d="M0 112.5C0 50.368 50.368 0 112.5 0C174.632 0 225 50.368 225 112.5C225 174.632 174.632 225 112.5 225C50.368 225 0 174.632 0 112.5ZM112.5 1.49007C51.1909 1.49007 1.49007 51.1909 1.49007 112.5C1.49007 173.809 51.1909 223.51 112.5 223.51C173.809 223.51 223.51 173.809 223.51 112.5C223.51 51.1909 173.809 1.49007 112.5 1.49007Z" fill="#7E87A0"/>
</svg>
