<svg width="32" height="32" viewBox="0 0 32 32" fill="none" xmlns="http://www.w3.org/2000/svg">
<path d="M30.6789 9.66651C30.0786 8.29394 29.2842 7.01479 28.3198 5.86835C26.8943 4.12301 25.1153 2.69935 23.0999 1.69108C21.0845 0.682822 18.8784 0.112803 16.6269 0.0185452C14.3753 -0.0757129 12.1293 0.307925 10.0367 1.14423C7.94414 1.98052 6.05237 3.25051 4.48596 4.8706C2.91954 6.49068 1.71398 8.42415 0.948624 10.5437C0.183271 12.6633 -0.124533 14.9209 0.0454877 17.168C0.21552 19.4152 0.859497 21.6008 1.93506 23.581C3.01062 25.5613 4.49338 27.2914 6.28574 28.6573C7.4358 29.5513 8.70659 30.278 10.0603 30.8159C11.9582 31.5937 13.9895 31.9943 16.0406 31.9955C20.2745 31.9861 24.3319 30.2984 27.3236 27.3024C30.3152 24.3063 31.9969 20.2464 32 16.0125C32.0031 13.8286 31.5533 11.6677 30.6789 9.66651ZM16.0288 3.26153C17.8708 3.26134 19.6905 3.66392 21.3604 4.44108C20.9532 4.61703 20.5251 4.73993 20.0865 4.80675C18.6434 5.01564 17.3066 5.6856 16.2756 6.71665C15.2445 7.74769 14.5746 9.08452 14.3657 10.5276C14.274 11.3369 13.9059 12.0898 13.3235 12.6593C12.7412 13.2288 11.9803 13.5798 11.1691 13.6534C9.72601 13.8623 8.38919 14.5323 7.35815 15.5633C6.32712 16.5944 5.65714 17.9312 5.44825 19.3742C5.37753 20.1438 5.0492 20.867 4.51641 21.4267C3.59712 19.4843 3.18416 17.3408 3.31594 15.1959C3.44772 13.051 4.11996 10.9743 5.27011 9.15895C6.42024 7.34372 8.01092 5.8489 9.8941 4.81364C11.7773 3.77838 13.8917 3.23634 16.0406 3.23794L16.0288 3.26153ZM6.27394 24.2694C6.41549 24.1396 6.55703 24.0217 6.69858 23.8801C7.74797 22.8628 8.42157 21.5197 8.60946 20.0702C8.68563 19.2553 9.04942 18.4943 9.63566 17.9234C10.1998 17.3362 10.9591 16.9754 11.7706 16.909C13.2137 16.7001 14.5505 16.0301 15.5815 14.999C16.6126 13.968 17.2826 12.6312 17.4915 11.1881C17.5426 10.3359 17.9082 9.53299 18.5177 8.93519C19.0958 8.35939 19.8623 8.01172 20.6763 7.95615C22.002 7.77375 23.2384 7.18439 24.2149 6.2694C25.3269 7.19189 26.2689 8.30164 26.9987 9.54856C26.9539 9.60907 26.9024 9.66451 26.8453 9.71369C26.2823 10.3061 25.524 10.6748 24.7103 10.7517C23.2657 10.9569 21.927 11.6257 20.8952 12.6574C19.8636 13.6891 19.1948 15.0279 18.9895 16.4725C18.9064 17.2845 18.5451 18.0429 17.9668 18.619C17.3885 19.1952 16.6289 19.5536 15.8165 19.6337C14.3692 19.841 13.0275 20.5097 11.9904 21.5402C10.9535 22.5709 10.2765 23.9086 10.0603 25.3546C9.99684 25.931 9.79879 26.4846 9.48232 26.9706C8.27209 26.252 7.1882 25.3395 6.27394 24.2694ZM16.0288 28.8225C14.8319 28.8238 13.6407 28.657 12.4902 28.327C12.8838 27.5934 13.1396 26.7937 13.2451 25.9679C13.3278 25.1577 13.6874 24.4008 14.2633 23.8249C14.8391 23.2491 15.5961 22.8894 16.4063 22.8067C17.8515 22.6002 19.191 21.9313 20.2244 20.9C21.2577 19.8688 21.9294 18.5306 22.1389 17.0859C22.2216 16.2757 22.5813 15.5187 23.1571 14.9429C23.733 14.367 24.4899 14.0074 25.3001 13.9247C26.3877 13.7833 27.4243 13.3783 28.3198 12.7451C28.8171 14.63 28.8759 16.6036 28.492 18.5147C28.108 20.4258 27.2913 22.2237 26.1047 23.7702C24.9181 25.3166 23.393 26.5708 21.6463 27.4364C19.8998 28.3019 17.9782 28.7559 16.0288 28.7635V28.8225Z" fill="#F8F2AA"/>
</svg>