<svg width="21" height="21" viewBox="0 0 21 21" fill="none" xmlns="http://www.w3.org/2000/svg">
<g clip-path="url(#clip0_5_565)">
<path d="M19.9249 7.33624C19.7559 6.06918 19.587 5.14 19.0802 4.80211C18.5733 4.37976 14.1808 4.29529 10.802 4.29529C7.42316 4.29529 3.03067 4.37976 2.52384 4.80211C2.01702 5.14 1.84808 6.06918 1.67913 7.33624C1.51019 8.60331 1.51019 9.36355 1.51019 10.2083C1.51019 11.053 1.51019 11.8132 1.67913 13.0803C1.84808 14.3473 2.01702 15.2765 2.52384 15.6144C3.03067 16.0368 7.42316 16.1212 10.802 16.1212C14.1808 16.1212 18.5733 16.0368 19.0802 15.6144C19.587 15.2765 19.7559 14.3473 19.9249 13.0803C20.0938 11.8132 20.0938 11.053 20.0938 10.2083C20.0938 9.36355 20.0938 8.60331 19.9249 7.33624ZM9.11258 13.2492V7.1673L14.1808 10.2083L9.11258 13.2492Z" fill="#B1BAD3"/>
</g>
<defs>
<clipPath id="clip0_5_565">
<rect width="20.273" height="20.273" fill="white" transform="translate(0.665497 0.0716553)"/>
</clipPath>
</defs>
</svg>
