<svg width="21" height="21" viewBox="0 0 21 21" fill="none" xmlns="http://www.w3.org/2000/svg">
<path d="M6.99656 16.1212H4.46243V7.67407H6.99656V16.1212ZM16.2884 16.1212H13.7542V11.6087C13.7542 10.4329 13.3353 9.84751 12.5049 9.84751C11.8469 9.84751 11.4296 10.1753 11.2201 10.8316V16.1212H8.68598C8.68598 16.1212 8.71977 8.51878 8.68598 7.67407H10.6863L10.8408 9.36349H10.8932C11.4127 8.51878 12.2431 7.94607 13.3817 7.94607C14.2476 7.94607 14.9478 8.18681 15.4825 8.79162C16.0206 9.39728 16.2884 10.2099 16.2884 11.3511V16.1212Z" fill="#B1BAD3"/>
<path d="M5.7295 6.82942C6.4526 6.82942 7.0388 6.26213 7.0388 5.56235C7.0388 4.86257 6.4526 4.29529 5.7295 4.29529C5.00639 4.29529 4.4202 4.86257 4.4202 5.56235C4.4202 6.26213 5.00639 6.82942 5.7295 6.82942Z" fill="#B1BAD3"/>
</svg>
