<svg width="22" height="21" viewBox="0 0 22 21" fill="none" xmlns="http://www.w3.org/2000/svg">
<path d="M16.157 2.60583H6.02046C4.58445 2.60583 3.48633 3.70396 3.48633 5.13996V15.2765C3.48633 16.7125 4.58445 17.8106 6.02046 17.8106H16.157C17.593 17.8106 18.6911 16.7125 18.6911 15.2765V5.13996C18.6911 3.70396 17.593 2.60583 16.157 2.60583ZM11.0887 7.67409C12.5247 7.67409 13.6228 8.77222 13.6228 10.2082C13.6228 11.6442 12.5247 12.7424 11.0887 12.7424C9.65271 12.7424 8.55459 11.6442 8.55459 10.2082C8.55459 8.77222 9.65271 7.67409 11.0887 7.67409ZM14.2986 5.98467C14.2986 5.39338 14.8054 4.97102 15.3123 4.97102C15.8191 4.97102 16.3259 5.47785 16.3259 5.98467C16.3259 6.4915 15.9036 6.99833 15.3123 6.99833C14.721 6.99833 14.2986 6.57597 14.2986 5.98467ZM16.157 16.1212H6.02046C5.51363 16.1212 5.17575 15.7833 5.17575 15.2765V10.2082H6.86517C6.86517 12.5734 8.72353 14.4318 11.0887 14.4318C13.4539 14.4318 15.3123 12.5734 15.3123 10.2082H17.0017V15.2765C17.0017 15.7833 16.6638 16.1212 16.157 16.1212Z" fill="#B1BAD3"/>
</svg>
