<svg width="21" height="21" viewBox="0 0 21 21" fill="none" xmlns="http://www.w3.org/2000/svg">
<path d="M16.0521 5.99483C16.7346 5.57585 17.1865 5.00399 17.4079 4.27669C16.7845 4.61382 16.1156 4.8588 15.4219 5.00399C14.8281 4.36538 14.0763 4.04102 13.175 4.04102C12.294 4.04102 11.5498 4.35018 10.9424 4.95161C10.6491 5.23721 10.4172 5.57969 10.261 5.95807C10.1047 6.33644 10.0273 6.74275 10.0335 7.15208C10.0335 7.4131 10.0665 7.64624 10.1324 7.8439C7.53404 7.75521 5.38341 6.67736 3.68893 4.60275C3.40172 5.11042 3.25812 5.62738 3.25812 6.16208C3.25812 7.26105 3.72187 8.13195 4.64767 8.77139C4.11973 8.72662 3.65429 8.59316 3.25812 8.37438C3.25812 9.15911 3.48873 9.81461 3.95079 10.3915C4.39963 10.9537 5.03217 11.3398 5.73735 11.4821C5.4738 11.5496 5.19589 11.5817 4.91038 11.5817C4.64683 11.5817 4.46015 11.5598 4.34949 11.5116C4.54377 12.1511 4.91038 12.6697 5.44001 13.0667C5.96359 13.4643 6.60049 13.6842 7.25783 13.6944C6.13267 14.5771 4.84618 15.0138 3.39074 15.0138C3.03428 15.0138 2.78171 15.0087 2.62881 14.9817C4.06229 15.9126 5.65794 16.3746 7.42339 16.3746C9.23022 16.3746 10.8267 15.9168 12.2163 15.0011C13.6058 14.0905 14.6313 12.9671 15.2902 11.6442C15.9417 10.3643 16.281 8.94821 16.2802 7.51193V7.1166C16.8875 6.66884 17.4132 6.11994 17.8344 5.49392C17.2656 5.74045 16.6661 5.90895 16.0521 5.99483Z" fill="#B1BAD3"/>
</svg>
