<svg width="201" height="149" viewBox="0 0 201 149" fill="none" xmlns="http://www.w3.org/2000/svg">
<path d="M11.789 7.65602L9.72581 0L7.66265 7.65602L0 9.71739L7.66265 11.7788L9.72581 19.4348L11.789 11.7788L19.4516 9.71739L11.789 7.65602Z" fill="#F5F6F9"/>
<path d="M37.7244 7.65602L35.6613 0L33.5981 7.65602L25.9355 9.71739L33.5981 11.7788L35.6613 19.4348L37.7244 11.7788L45.3871 9.71739L37.7244 7.65602Z" fill="#F5F6F9"/>
<path d="M61.5968 0L63.6599 7.65602L71.3226 9.71739L63.6599 11.7788L61.5968 19.4348L59.5336 11.7788L51.871 9.71739L59.5336 7.65602L61.5968 0Z" fill="#F5F6F9"/>
<path d="M89.5954 7.65602L87.5323 0L85.4691 7.65602L77.8064 9.71739L85.4691 11.7788L87.5323 19.4348L89.5954 11.7788L97.2581 9.71739L89.5954 7.65602Z" fill="#F5F6F9"/>
<path d="M113.468 0L115.531 7.65602L123.194 9.71739L115.531 11.7788L113.468 19.4348L111.405 11.7788L103.742 9.71739L111.405 7.65602L113.468 0Z" fill="#F5F6F9"/>
<path d="M141.466 7.65602L139.403 0L137.34 7.65602L129.677 9.71739L137.34 11.7788L139.403 19.4348L141.466 11.7788L149.129 9.71739L141.466 7.65602Z" fill="#F5F6F9"/>
<path d="M165.339 0L167.402 7.65602L175.065 9.71739L167.402 11.7788L165.339 19.4348L163.276 11.7788L155.613 9.71739L163.276 7.65602L165.339 0Z" fill="#F5F6F9"/>
<path d="M193.337 7.65602L191.274 0L189.211 7.65602L181.548 9.71739L189.211 11.7788L191.274 19.4348L193.337 11.7788L201 9.71739L193.337 7.65602Z" fill="#F5F6F9"/>
<path d="M9.72581 25.913L11.789 33.5691L19.4516 35.6304L11.789 37.6918L9.72581 45.3478L7.66265 37.6918L0 35.6304L7.66265 33.5691L9.72581 25.913Z" fill="#F5F6F9"/>
<path d="M37.7244 33.5691L35.6613 25.913L33.5981 33.5691L25.9355 35.6304L33.5981 37.6918L35.6613 45.3478L37.7244 37.6918L45.3871 35.6304L37.7244 33.5691Z" fill="#F5F6F9"/>
<path d="M61.5968 25.913L63.6599 33.5691L71.3226 35.6304L63.6599 37.6918L61.5968 45.3478L59.5336 37.6918L51.871 35.6304L59.5336 33.5691L61.5968 25.913Z" fill="#F5F6F9"/>
<path d="M89.5954 33.5691L87.5323 25.913L85.4691 33.5691L77.8064 35.6304L85.4691 37.6918L87.5323 45.3478L89.5954 37.6918L97.2581 35.6304L89.5954 33.5691Z" fill="#F5F6F9"/>
<path d="M113.468 25.913L115.531 33.5691L123.194 35.6304L115.531 37.6918L113.468 45.3478L111.405 37.6918L103.742 35.6304L111.405 33.5691L113.468 25.913Z" fill="#F5F6F9"/>
<path d="M141.466 33.5691L139.403 25.913L137.34 33.5691L129.677 35.6304L137.34 37.6918L139.403 45.3478L141.466 37.6918L149.129 35.6304L141.466 33.5691Z" fill="#F5F6F9"/>
<path d="M165.339 25.913L167.402 33.5691L175.065 35.6304L167.402 37.6918L165.339 45.3478L163.276 37.6918L155.613 35.6304L163.276 33.5691L165.339 25.913Z" fill="#F5F6F9"/>
<path d="M193.337 33.5691L191.274 25.913L189.211 33.5691L181.548 35.6304L189.211 37.6918L191.274 45.3478L193.337 37.6918L201 35.6304L193.337 33.5691Z" fill="#F5F6F9"/>
<path d="M9.72581 51.8261L11.789 59.4821L19.4516 61.5435L11.789 63.6048L9.72581 71.2609L7.66265 63.6048L0 61.5435L7.66265 59.4821L9.72581 51.8261Z" fill="#F5F6F9"/>
<path d="M37.7244 59.4821L35.6613 51.8261L33.5981 59.4821L25.9355 61.5435L33.5981 63.6048L35.6613 71.2609L37.7244 63.6048L45.3871 61.5435L37.7244 59.4821Z" fill="#F5F6F9"/>
<path d="M61.5968 51.8261L63.6599 59.4821L71.3226 61.5435L63.6599 63.6048L61.5968 71.2609L59.5336 63.6048L51.871 61.5435L59.5336 59.4821L61.5968 51.8261Z" fill="#F5F6F9"/>
<path d="M89.5954 59.4821L87.5323 51.8261L85.4691 59.4821L77.8064 61.5435L85.4691 63.6048L87.5323 71.2609L89.5954 63.6048L97.2581 61.5435L89.5954 59.4821Z" fill="#F5F6F9"/>
<path d="M113.468 51.8261L115.531 59.4821L123.194 61.5435L115.531 63.6048L113.468 71.2609L111.405 63.6048L103.742 61.5435L111.405 59.4821L113.468 51.8261Z" fill="#F5F6F9"/>
<path d="M141.466 59.4821L139.403 51.8261L137.34 59.4821L129.677 61.5435L137.34 63.6048L139.403 71.2609L141.466 63.6048L149.129 61.5435L141.466 59.4821Z" fill="#F5F6F9"/>
<path d="M165.339 51.8261L167.402 59.4821L175.065 61.5435L167.402 63.6048L165.339 71.2609L163.276 63.6048L155.613 61.5435L163.276 59.4821L165.339 51.8261Z" fill="#F5F6F9"/>
<path d="M193.337 59.4821L191.274 51.8261L189.211 59.4821L181.548 61.5435L189.211 63.6048L191.274 71.2609L193.337 63.6048L201 61.5435L193.337 59.4821Z" fill="#F5F6F9"/>
<path d="M9.72581 77.7391L11.789 85.3952L19.4516 87.4565L11.789 89.5179L9.72581 97.1739L7.66265 89.5179L0 87.4565L7.66265 85.3952L9.72581 77.7391Z" fill="#F5F6F9"/>
<path d="M37.7244 85.3952L35.6613 77.7391L33.5981 85.3952L25.9355 87.4565L33.5981 89.5179L35.6613 97.1739L37.7244 89.5179L45.3871 87.4565L37.7244 85.3952Z" fill="#F5F6F9"/>
<path d="M61.5968 77.7391L63.6599 85.3952L71.3226 87.4565L63.6599 89.5179L61.5968 97.1739L59.5336 89.5179L51.871 87.4565L59.5336 85.3952L61.5968 77.7391Z" fill="#F5F6F9"/>
<path d="M89.5954 85.3952L87.5323 77.7391L85.4691 85.3952L77.8064 87.4565L85.4691 89.5179L87.5323 97.1739L89.5954 89.5179L97.2581 87.4565L89.5954 85.3952Z" fill="#F5F6F9"/>
<path d="M113.468 77.7391L115.531 85.3952L123.194 87.4565L115.531 89.5179L113.468 97.1739L111.405 89.5179L103.742 87.4565L111.405 85.3952L113.468 77.7391Z" fill="#F5F6F9"/>
<path d="M141.466 85.3952L139.403 77.7391L137.34 85.3952L129.677 87.4565L137.34 89.5179L139.403 97.1739L141.466 89.5179L149.129 87.4565L141.466 85.3952Z" fill="#F5F6F9"/>
<path d="M165.339 77.7391L167.402 85.3952L175.065 87.4565L167.402 89.5179L165.339 97.1739L163.276 89.5179L155.613 87.4565L163.276 85.3952L165.339 77.7391Z" fill="#F5F6F9"/>
<path d="M193.337 85.3952L191.274 77.7391L189.211 85.3952L181.548 87.4565L189.211 89.5179L191.274 97.1739L193.337 89.5179L201 87.4565L193.337 85.3952Z" fill="#F5F6F9"/>
<path d="M9.72581 103.652L11.789 111.308L19.4516 113.37L11.789 115.431L9.72581 123.087L7.66265 115.431L0 113.37L7.66265 111.308L9.72581 103.652Z" fill="#F5F6F9"/>
<path d="M37.7244 111.308L35.6613 103.652L33.5981 111.308L25.9355 113.37L33.5981 115.431L35.6613 123.087L37.7244 115.431L45.3871 113.37L37.7244 111.308Z" fill="#F5F6F9"/>
<path d="M61.5968 103.652L63.6599 111.308L71.3226 113.37L63.6599 115.431L61.5968 123.087L59.5336 115.431L51.871 113.37L59.5336 111.308L61.5968 103.652Z" fill="#F5F6F9"/>
<path d="M89.5954 111.308L87.5323 103.652L85.4691 111.308L77.8064 113.37L85.4691 115.431L87.5323 123.087L89.5954 115.431L97.2581 113.37L89.5954 111.308Z" fill="#F5F6F9"/>
<path d="M113.468 103.652L115.531 111.308L123.194 113.37L115.531 115.431L113.468 123.087L111.405 115.431L103.742 113.37L111.405 111.308L113.468 103.652Z" fill="#F5F6F9"/>
<path d="M141.466 111.308L139.403 103.652L137.34 111.308L129.677 113.37L137.34 115.431L139.403 123.087L141.466 115.431L149.129 113.37L141.466 111.308Z" fill="#F5F6F9"/>
<path d="M165.339 103.652L167.402 111.308L175.065 113.37L167.402 115.431L165.339 123.087L163.276 115.431L155.613 113.37L163.276 111.308L165.339 103.652Z" fill="#F5F6F9"/>
<path d="M193.337 111.308L191.274 103.652L189.211 111.308L181.548 113.37L189.211 115.431L191.274 123.087L193.337 115.431L201 113.37L193.337 111.308Z" fill="#F5F6F9"/>
<path d="M9.72581 129.565L11.789 137.221L19.4516 139.283L11.789 141.344L9.72581 149L7.66265 141.344L0 139.283L7.66265 137.221L9.72581 129.565Z" fill="#F5F6F9"/>
<path d="M37.7244 137.221L35.6613 129.565L33.5981 137.221L25.9355 139.283L33.5981 141.344L35.6613 149L37.7244 141.344L45.3871 139.283L37.7244 137.221Z" fill="#F5F6F9"/>
<path d="M61.5968 129.565L63.6599 137.221L71.3226 139.283L63.6599 141.344L61.5968 149L59.5336 141.344L51.871 139.283L59.5336 137.221L61.5968 129.565Z" fill="#F5F6F9"/>
<path d="M89.5954 137.221L87.5323 129.565L85.4691 137.221L77.8064 139.283L85.4691 141.344L87.5323 149L89.5954 141.344L97.2581 139.283L89.5954 137.221Z" fill="#F5F6F9"/>
<path d="M113.468 129.565L115.531 137.221L123.194 139.283L115.531 141.344L113.468 149L111.405 141.344L103.742 139.283L111.405 137.221L113.468 129.565Z" fill="#F5F6F9"/>
<path d="M141.466 137.221L139.403 129.565L137.34 137.221L129.677 139.283L137.34 141.344L139.403 149L141.466 141.344L149.129 139.283L141.466 137.221Z" fill="#F5F6F9"/>
<path d="M165.339 129.565L167.402 137.221L175.065 139.283L167.402 141.344L165.339 149L163.276 141.344L155.613 139.283L163.276 137.221L165.339 129.565Z" fill="#F5F6F9"/>
<path d="M193.337 137.221L191.274 129.565L189.211 137.221L181.548 139.283L189.211 141.344L191.274 149L193.337 141.344L201 139.283L193.337 137.221Z" fill="#F5F6F9"/>
</svg>
